<svg xmlns="http://www.w3.org/2000/svg" viewBox="0 0 64 64" width="64" height="64" role="img" aria-label="Antimicrobial resistance shield"><rect width="64" height="64" rx="12" fill="#fbfaf8"/><path d="M32 7 L51 13 V31 C51 44 42 52 32 57 C22 52 13 44 13 31 V13 Z" fill="#3f7d7b"/><path d="M32 11 L47 15.7 V31 C47 41.5 39.7 48.4 32 52.8 C24.3 48.4 17 41.5 17 31 V15.7 Z" fill="#4c8c8a"/><g fill="#d8b26e"><circle cx="32" cy="31" r="7.5"/></g><g stroke="#d8b26e" stroke-width="2.4" stroke-linecap="round"><line x1="32" y1="20" x2="32" y2="14.5"/><line x1="32" y1="42" x2="32" y2="47.5"/><line x1="21.5" y1="31" x2="16" y2="31"/><line x1="42.5" y1="31" x2="48" y2="31"/><line x1="24.6" y1="23.6" x2="20.8" y2="19.8"/><line x1="39.4" y1="38.4" x2="43.2" y2="42.2"/><line x1="39.4" y1="23.6" x2="43.2" y2="19.8"/><line x1="24.6" y1="38.4" x2="20.8" y2="42.2"/></g><g fill="#fbfaf8"><circle cx="32" cy="14.5" r="2"/><circle cx="32" cy="47.5" r="2"/><circle cx="16" cy="31" r="2"/><circle cx="48" cy="31" r="2"/><circle cx="20.8" cy="19.8" r="1.7"/><circle cx="43.2" cy="42.2" r="1.7"/><circle cx="43.2" cy="19.8" r="1.7"/><circle cx="20.8" cy="42.2" r="1.7"/></g><circle cx="32" cy="31" r="3" fill="#c88f7a"/></svg>
